<mxfile host="app.diagrams.net" modified="2024-04-04T05:35:20.786Z" agent="Mozilla/5.0 (Windows NT 10.0; Win64; x64) AppleWebKit/537.36 (KHTML, like Gecko) Chrome/120.0.0.0 YaBrowser/24.1.0.0 Safari/537.36" etag="7Xnlyw5mkTYMgJ5AxSj1" version="23.1.1" type="github">
  <diagram id="C5RBs43oDa-KdzZeNtuy" name="Page-1">
    <mxGraphModel dx="2384" dy="1345" grid="1" gridSize="10" guides="1" tooltips="1" connect="1" arrows="1" fold="1" page="1" pageScale="1" pageWidth="2339" pageHeight="3300" math="0" shadow="0">
      <root>
        <mxCell id="WIyWlLk6GJQsqaUBKTNV-0" />
        <mxCell id="WIyWlLk6GJQsqaUBKTNV-1" parent="WIyWlLk6GJQsqaUBKTNV-0" />
        <mxCell id="AQrncg6-6hbpREM-4HsJ-293" value="" style="rounded=0;whiteSpace=wrap;html=1;" vertex="1" parent="WIyWlLk6GJQsqaUBKTNV-1">
          <mxGeometry x="640" y="40" width="480" height="360" as="geometry" />
        </mxCell>
        <mxCell id="AQrncg6-6hbpREM-4HsJ-292" value="" style="rounded=0;whiteSpace=wrap;html=1;" vertex="1" parent="WIyWlLk6GJQsqaUBKTNV-1">
          <mxGeometry x="680" y="440" width="360" height="280" as="geometry" />
        </mxCell>
        <mxCell id="AQrncg6-6hbpREM-4HsJ-259" value="" style="endArrow=none;html=1;rounded=0;" edge="1" parent="WIyWlLk6GJQsqaUBKTNV-1">
          <mxGeometry width="50" height="50" relative="1" as="geometry">
            <mxPoint x="810" y="650" as="sourcePoint" />
            <mxPoint x="810" y="590" as="targetPoint" />
          </mxGeometry>
        </mxCell>
        <mxCell id="AQrncg6-6hbpREM-4HsJ-233" value="" style="rounded=0;whiteSpace=wrap;html=1;" vertex="1" parent="WIyWlLk6GJQsqaUBKTNV-1">
          <mxGeometry x="680" y="760" width="200" height="160" as="geometry" />
        </mxCell>
        <mxCell id="AQrncg6-6hbpREM-4HsJ-51" value="" style="rounded=0;whiteSpace=wrap;html=1;" vertex="1" parent="WIyWlLk6GJQsqaUBKTNV-1">
          <mxGeometry x="320" y="440" width="200" height="160" as="geometry" />
        </mxCell>
        <mxCell id="AQrncg6-6hbpREM-4HsJ-21" value="" style="rounded=0;whiteSpace=wrap;html=1;" vertex="1" parent="WIyWlLk6GJQsqaUBKTNV-1">
          <mxGeometry x="40" y="40" width="520" height="360" as="geometry" />
        </mxCell>
        <mxCell id="AQrncg6-6hbpREM-4HsJ-8" style="edgeStyle=orthogonalEdgeStyle;rounded=0;orthogonalLoop=1;jettySize=auto;html=1;exitX=1;exitY=0.5;exitDx=0;exitDy=0;entryX=0;entryY=0.5;entryDx=0;entryDy=0;" edge="1" parent="WIyWlLk6GJQsqaUBKTNV-1" source="AQrncg6-6hbpREM-4HsJ-1" target="AQrncg6-6hbpREM-4HsJ-2">
          <mxGeometry relative="1" as="geometry" />
        </mxCell>
        <mxCell id="AQrncg6-6hbpREM-4HsJ-1" value="Vertex&lt;br&gt;Shader" style="rounded=1;whiteSpace=wrap;html=1;fontSize=12;glass=0;strokeWidth=1;shadow=0;" vertex="1" parent="WIyWlLk6GJQsqaUBKTNV-1">
          <mxGeometry x="200" y="160" width="80" height="40" as="geometry" />
        </mxCell>
        <mxCell id="AQrncg6-6hbpREM-4HsJ-9" style="edgeStyle=orthogonalEdgeStyle;rounded=0;orthogonalLoop=1;jettySize=auto;html=1;exitX=1;exitY=0.5;exitDx=0;exitDy=0;entryX=0;entryY=0.5;entryDx=0;entryDy=0;" edge="1" parent="WIyWlLk6GJQsqaUBKTNV-1" source="AQrncg6-6hbpREM-4HsJ-2" target="AQrncg6-6hbpREM-4HsJ-3">
          <mxGeometry relative="1" as="geometry" />
        </mxCell>
        <mxCell id="AQrncg6-6hbpREM-4HsJ-2" value="Primitive&lt;br&gt;assembly" style="rounded=1;whiteSpace=wrap;html=1;fontSize=12;glass=0;strokeWidth=1;shadow=0;" vertex="1" parent="WIyWlLk6GJQsqaUBKTNV-1">
          <mxGeometry x="320" y="160" width="80" height="40" as="geometry" />
        </mxCell>
        <mxCell id="AQrncg6-6hbpREM-4HsJ-10" style="edgeStyle=orthogonalEdgeStyle;rounded=0;orthogonalLoop=1;jettySize=auto;html=1;exitX=0.5;exitY=1;exitDx=0;exitDy=0;entryX=0.5;entryY=0;entryDx=0;entryDy=0;" edge="1" parent="WIyWlLk6GJQsqaUBKTNV-1" source="AQrncg6-6hbpREM-4HsJ-3" target="AQrncg6-6hbpREM-4HsJ-4">
          <mxGeometry relative="1" as="geometry" />
        </mxCell>
        <mxCell id="AQrncg6-6hbpREM-4HsJ-3" value="Resterization" style="rounded=1;whiteSpace=wrap;html=1;fontSize=12;glass=0;strokeWidth=1;shadow=0;" vertex="1" parent="WIyWlLk6GJQsqaUBKTNV-1">
          <mxGeometry x="440" y="160" width="80" height="40" as="geometry" />
        </mxCell>
        <mxCell id="AQrncg6-6hbpREM-4HsJ-11" style="edgeStyle=orthogonalEdgeStyle;rounded=0;orthogonalLoop=1;jettySize=auto;html=1;exitX=0.5;exitY=1;exitDx=0;exitDy=0;entryX=0.5;entryY=0;entryDx=0;entryDy=0;" edge="1" parent="WIyWlLk6GJQsqaUBKTNV-1" source="AQrncg6-6hbpREM-4HsJ-4" target="AQrncg6-6hbpREM-4HsJ-5">
          <mxGeometry relative="1" as="geometry" />
        </mxCell>
        <mxCell id="AQrncg6-6hbpREM-4HsJ-4" value="Fragment&lt;br&gt;Shader" style="rounded=1;whiteSpace=wrap;html=1;fontSize=12;glass=0;strokeWidth=1;shadow=0;" vertex="1" parent="WIyWlLk6GJQsqaUBKTNV-1">
          <mxGeometry x="440" y="240" width="80" height="40" as="geometry" />
        </mxCell>
        <mxCell id="AQrncg6-6hbpREM-4HsJ-12" style="edgeStyle=orthogonalEdgeStyle;rounded=0;orthogonalLoop=1;jettySize=auto;html=1;exitX=0;exitY=0.5;exitDx=0;exitDy=0;entryX=1;entryY=0.5;entryDx=0;entryDy=0;" edge="1" parent="WIyWlLk6GJQsqaUBKTNV-1" source="AQrncg6-6hbpREM-4HsJ-5" target="AQrncg6-6hbpREM-4HsJ-6">
          <mxGeometry relative="1" as="geometry" />
        </mxCell>
        <mxCell id="AQrncg6-6hbpREM-4HsJ-5" value="Tests" style="rounded=1;whiteSpace=wrap;html=1;fontSize=12;glass=0;strokeWidth=1;shadow=0;" vertex="1" parent="WIyWlLk6GJQsqaUBKTNV-1">
          <mxGeometry x="440" y="320" width="80" height="40" as="geometry" />
        </mxCell>
        <mxCell id="AQrncg6-6hbpREM-4HsJ-6" value="FrameBuffer" style="rounded=1;whiteSpace=wrap;html=1;fontSize=12;glass=0;strokeWidth=1;shadow=0;" vertex="1" parent="WIyWlLk6GJQsqaUBKTNV-1">
          <mxGeometry x="320" y="320" width="80" height="40" as="geometry" />
        </mxCell>
        <mxCell id="AQrncg6-6hbpREM-4HsJ-18" style="edgeStyle=orthogonalEdgeStyle;rounded=0;orthogonalLoop=1;jettySize=auto;html=1;exitX=0.5;exitY=0;exitDx=0;exitDy=0;entryX=0.5;entryY=1;entryDx=0;entryDy=0;dashed=1;" edge="1" parent="WIyWlLk6GJQsqaUBKTNV-1" source="AQrncg6-6hbpREM-4HsJ-7" target="AQrncg6-6hbpREM-4HsJ-1">
          <mxGeometry relative="1" as="geometry" />
        </mxCell>
        <mxCell id="AQrncg6-6hbpREM-4HsJ-19" style="edgeStyle=orthogonalEdgeStyle;rounded=0;orthogonalLoop=1;jettySize=auto;html=1;exitX=1;exitY=0.5;exitDx=0;exitDy=0;dashed=1;" edge="1" parent="WIyWlLk6GJQsqaUBKTNV-1" source="AQrncg6-6hbpREM-4HsJ-7" target="AQrncg6-6hbpREM-4HsJ-4">
          <mxGeometry relative="1" as="geometry" />
        </mxCell>
        <mxCell id="AQrncg6-6hbpREM-4HsJ-7" value="Iniforms" style="rounded=1;whiteSpace=wrap;html=1;fontSize=12;glass=0;strokeWidth=1;shadow=0;" vertex="1" parent="WIyWlLk6GJQsqaUBKTNV-1">
          <mxGeometry x="200" y="240" width="80" height="40" as="geometry" />
        </mxCell>
        <mxCell id="AQrncg6-6hbpREM-4HsJ-17" style="edgeStyle=orthogonalEdgeStyle;rounded=0;orthogonalLoop=1;jettySize=auto;html=1;exitX=1;exitY=0.5;exitDx=0;exitDy=0;entryX=0;entryY=0.5;entryDx=0;entryDy=0;" edge="1" parent="WIyWlLk6GJQsqaUBKTNV-1" source="AQrncg6-6hbpREM-4HsJ-16" target="AQrncg6-6hbpREM-4HsJ-1">
          <mxGeometry relative="1" as="geometry" />
        </mxCell>
        <mxCell id="AQrncg6-6hbpREM-4HsJ-16" value="Vertices" style="rounded=1;whiteSpace=wrap;html=1;fontSize=12;glass=0;strokeWidth=1;shadow=0;" vertex="1" parent="WIyWlLk6GJQsqaUBKTNV-1">
          <mxGeometry x="80" y="160" width="80" height="40" as="geometry" />
        </mxCell>
        <mxCell id="AQrncg6-6hbpREM-4HsJ-20" value="&lt;span style=&quot;color: rgb(0, 0, 0); font-family: Helvetica; font-size: 12px; font-style: normal; font-variant-ligatures: normal; font-variant-caps: normal; font-weight: 400; letter-spacing: normal; orphans: 2; text-indent: 0px; text-transform: none; widows: 2; word-spacing: 0px; -webkit-text-stroke-width: 0px; background-color: rgb(251, 251, 251); text-decoration-thickness: initial; text-decoration-style: initial; text-decoration-color: initial; float: none; display: inline !important;&quot;&gt;Modern OpenGL - version 3.3+&lt;br&gt;The OpenGL Rendering Pipeline&lt;/span&gt;" style="text;whiteSpace=wrap;html=1;align=center;verticalAlign=middle;" vertex="1" parent="WIyWlLk6GJQsqaUBKTNV-1">
          <mxGeometry x="80" y="80" width="440" height="40" as="geometry" />
        </mxCell>
        <mxCell id="AQrncg6-6hbpREM-4HsJ-23" value="" style="rounded=0;whiteSpace=wrap;html=1;" vertex="1" parent="WIyWlLk6GJQsqaUBKTNV-1">
          <mxGeometry x="80" y="440" width="200" height="160" as="geometry" />
        </mxCell>
        <mxCell id="AQrncg6-6hbpREM-4HsJ-27" value="&lt;span style=&quot;color: rgb(0, 0, 0); font-family: Helvetica; font-size: 12px; font-style: normal; font-variant-ligatures: normal; font-variant-caps: normal; font-weight: 400; letter-spacing: normal; orphans: 2; text-indent: 0px; text-transform: none; widows: 2; word-spacing: 0px; -webkit-text-stroke-width: 0px; background-color: rgb(251, 251, 251); text-decoration-thickness: initial; text-decoration-style: initial; text-decoration-color: initial; float: none; display: inline !important;&quot;&gt;Vertices&lt;/span&gt;" style="text;whiteSpace=wrap;html=1;align=center;verticalAlign=middle;" vertex="1" parent="WIyWlLk6GJQsqaUBKTNV-1">
          <mxGeometry x="80" y="440" width="80" height="40" as="geometry" />
        </mxCell>
        <mxCell id="AQrncg6-6hbpREM-4HsJ-39" value="" style="shape=waypoint;sketch=0;fillStyle=solid;size=6;pointerEvents=1;points=[];fillColor=none;resizable=1;rotatable=1;perimeter=centerPerimeter;snapToPoint=1;movable=1;deletable=1;editable=1;locked=0;connectable=1;" vertex="1" parent="WIyWlLk6GJQsqaUBKTNV-1">
          <mxGeometry x="120" y="560" width="10" height="10" as="geometry" />
        </mxCell>
        <mxCell id="AQrncg6-6hbpREM-4HsJ-40" value="" style="shape=waypoint;sketch=0;fillStyle=solid;size=6;pointerEvents=1;points=[];fillColor=none;resizable=1;rotatable=1;perimeter=centerPerimeter;snapToPoint=1;movable=1;deletable=1;editable=1;locked=0;connectable=1;" vertex="1" parent="WIyWlLk6GJQsqaUBKTNV-1">
          <mxGeometry x="230" y="560" width="10" height="10" as="geometry" />
        </mxCell>
        <mxCell id="AQrncg6-6hbpREM-4HsJ-41" value="" style="shape=waypoint;sketch=0;fillStyle=solid;size=6;pointerEvents=1;points=[];fillColor=none;resizable=1;rotatable=1;perimeter=centerPerimeter;snapToPoint=1;movable=1;deletable=1;editable=1;locked=0;connectable=1;" vertex="1" parent="WIyWlLk6GJQsqaUBKTNV-1">
          <mxGeometry x="175" y="470" width="10" height="10" as="geometry" />
        </mxCell>
        <mxCell id="AQrncg6-6hbpREM-4HsJ-43" value="Primitive&lt;br style=&quot;border-color: var(--border-color);&quot;&gt;assembly" style="text;whiteSpace=wrap;html=1;align=center;verticalAlign=middle;" vertex="1" parent="WIyWlLk6GJQsqaUBKTNV-1">
          <mxGeometry x="320" y="440" width="80" height="40" as="geometry" />
        </mxCell>
        <mxCell id="AQrncg6-6hbpREM-4HsJ-44" value="" style="shape=waypoint;sketch=0;fillStyle=solid;size=6;pointerEvents=1;points=[];fillColor=none;resizable=1;rotatable=1;perimeter=centerPerimeter;snapToPoint=1;movable=1;deletable=1;editable=1;locked=0;connectable=1;" vertex="1" parent="WIyWlLk6GJQsqaUBKTNV-1">
          <mxGeometry x="360" y="560" width="10" height="10" as="geometry" />
        </mxCell>
        <mxCell id="AQrncg6-6hbpREM-4HsJ-45" value="" style="shape=waypoint;sketch=0;fillStyle=solid;size=6;pointerEvents=1;points=[];fillColor=none;resizable=1;rotatable=1;perimeter=centerPerimeter;snapToPoint=1;movable=1;deletable=1;editable=1;locked=0;connectable=1;" vertex="1" parent="WIyWlLk6GJQsqaUBKTNV-1">
          <mxGeometry x="470" y="560" width="10" height="10" as="geometry" />
        </mxCell>
        <mxCell id="AQrncg6-6hbpREM-4HsJ-46" value="" style="shape=waypoint;sketch=0;fillStyle=solid;size=6;pointerEvents=1;points=[];fillColor=none;resizable=1;rotatable=1;perimeter=centerPerimeter;snapToPoint=1;movable=1;deletable=1;editable=1;locked=0;connectable=1;" vertex="1" parent="WIyWlLk6GJQsqaUBKTNV-1">
          <mxGeometry x="415" y="470" width="10" height="10" as="geometry" />
        </mxCell>
        <mxCell id="AQrncg6-6hbpREM-4HsJ-48" value="" style="endArrow=none;html=1;rounded=0;" edge="1" parent="WIyWlLk6GJQsqaUBKTNV-1" source="AQrncg6-6hbpREM-4HsJ-44" target="AQrncg6-6hbpREM-4HsJ-46">
          <mxGeometry width="50" height="50" relative="1" as="geometry">
            <mxPoint x="365" y="560" as="sourcePoint" />
            <mxPoint x="415" y="510" as="targetPoint" />
          </mxGeometry>
        </mxCell>
        <mxCell id="AQrncg6-6hbpREM-4HsJ-49" value="" style="endArrow=none;html=1;rounded=0;" edge="1" parent="WIyWlLk6GJQsqaUBKTNV-1" source="AQrncg6-6hbpREM-4HsJ-44" target="AQrncg6-6hbpREM-4HsJ-45">
          <mxGeometry width="50" height="50" relative="1" as="geometry">
            <mxPoint x="375" y="575" as="sourcePoint" />
            <mxPoint x="430" y="485" as="targetPoint" />
          </mxGeometry>
        </mxCell>
        <mxCell id="AQrncg6-6hbpREM-4HsJ-50" value="" style="endArrow=none;html=1;rounded=0;exitX=0.933;exitY=0.967;exitDx=0;exitDy=0;exitPerimeter=0;" edge="1" parent="WIyWlLk6GJQsqaUBKTNV-1" source="AQrncg6-6hbpREM-4HsJ-45" target="AQrncg6-6hbpREM-4HsJ-46">
          <mxGeometry width="50" height="50" relative="1" as="geometry">
            <mxPoint x="400" y="570" as="sourcePoint" />
            <mxPoint x="450" y="520" as="targetPoint" />
          </mxGeometry>
        </mxCell>
        <mxCell id="AQrncg6-6hbpREM-4HsJ-52" value="" style="rounded=0;whiteSpace=wrap;html=1;" vertex="1" parent="WIyWlLk6GJQsqaUBKTNV-1">
          <mxGeometry x="80" y="640" width="200" height="160" as="geometry" />
        </mxCell>
        <mxCell id="AQrncg6-6hbpREM-4HsJ-53" value="Fragments" style="text;whiteSpace=wrap;html=1;align=center;verticalAlign=middle;" vertex="1" parent="WIyWlLk6GJQsqaUBKTNV-1">
          <mxGeometry x="80" y="640" width="80" height="40" as="geometry" />
        </mxCell>
        <mxCell id="AQrncg6-6hbpREM-4HsJ-60" value="" style="rounded=0;whiteSpace=wrap;html=1;" vertex="1" parent="WIyWlLk6GJQsqaUBKTNV-1">
          <mxGeometry x="175" y="670" width="10" height="10" as="geometry" />
        </mxCell>
        <mxCell id="AQrncg6-6hbpREM-4HsJ-61" value="" style="rounded=0;whiteSpace=wrap;html=1;" vertex="1" parent="WIyWlLk6GJQsqaUBKTNV-1">
          <mxGeometry x="175" y="680" width="10" height="10" as="geometry" />
        </mxCell>
        <mxCell id="AQrncg6-6hbpREM-4HsJ-68" value="" style="rounded=0;whiteSpace=wrap;html=1;" vertex="1" parent="WIyWlLk6GJQsqaUBKTNV-1">
          <mxGeometry x="185" y="690" width="10" height="10" as="geometry" />
        </mxCell>
        <mxCell id="AQrncg6-6hbpREM-4HsJ-69" value="" style="rounded=0;whiteSpace=wrap;html=1;" vertex="1" parent="WIyWlLk6GJQsqaUBKTNV-1">
          <mxGeometry x="185" y="700" width="10" height="10" as="geometry" />
        </mxCell>
        <mxCell id="AQrncg6-6hbpREM-4HsJ-70" value="" style="rounded=0;whiteSpace=wrap;html=1;" vertex="1" parent="WIyWlLk6GJQsqaUBKTNV-1">
          <mxGeometry x="195" y="710" width="10" height="10" as="geometry" />
        </mxCell>
        <mxCell id="AQrncg6-6hbpREM-4HsJ-71" value="" style="rounded=0;whiteSpace=wrap;html=1;" vertex="1" parent="WIyWlLk6GJQsqaUBKTNV-1">
          <mxGeometry x="195" y="720" width="10" height="10" as="geometry" />
        </mxCell>
        <mxCell id="AQrncg6-6hbpREM-4HsJ-72" value="" style="rounded=0;whiteSpace=wrap;html=1;" vertex="1" parent="WIyWlLk6GJQsqaUBKTNV-1">
          <mxGeometry x="205" y="730" width="10" height="10" as="geometry" />
        </mxCell>
        <mxCell id="AQrncg6-6hbpREM-4HsJ-73" value="" style="rounded=0;whiteSpace=wrap;html=1;" vertex="1" parent="WIyWlLk6GJQsqaUBKTNV-1">
          <mxGeometry x="205" y="740" width="10" height="10" as="geometry" />
        </mxCell>
        <mxCell id="AQrncg6-6hbpREM-4HsJ-74" value="" style="rounded=0;whiteSpace=wrap;html=1;" vertex="1" parent="WIyWlLk6GJQsqaUBKTNV-1">
          <mxGeometry x="215" y="750" width="10" height="10" as="geometry" />
        </mxCell>
        <mxCell id="AQrncg6-6hbpREM-4HsJ-75" value="" style="rounded=0;whiteSpace=wrap;html=1;" vertex="1" parent="WIyWlLk6GJQsqaUBKTNV-1">
          <mxGeometry x="215" y="760" width="10" height="10" as="geometry" />
        </mxCell>
        <mxCell id="AQrncg6-6hbpREM-4HsJ-76" value="" style="rounded=0;whiteSpace=wrap;html=1;" vertex="1" parent="WIyWlLk6GJQsqaUBKTNV-1">
          <mxGeometry x="225" y="760" width="10" height="10" as="geometry" />
        </mxCell>
        <mxCell id="AQrncg6-6hbpREM-4HsJ-77" value="" style="rounded=0;whiteSpace=wrap;html=1;" vertex="1" parent="WIyWlLk6GJQsqaUBKTNV-1">
          <mxGeometry x="165" y="690" width="10" height="10" as="geometry" />
        </mxCell>
        <mxCell id="AQrncg6-6hbpREM-4HsJ-78" value="" style="rounded=0;whiteSpace=wrap;html=1;" vertex="1" parent="WIyWlLk6GJQsqaUBKTNV-1">
          <mxGeometry x="175" y="690" width="10" height="10" as="geometry" />
        </mxCell>
        <mxCell id="AQrncg6-6hbpREM-4HsJ-79" value="" style="rounded=0;whiteSpace=wrap;html=1;" vertex="1" parent="WIyWlLk6GJQsqaUBKTNV-1">
          <mxGeometry x="175" y="700" width="10" height="10" as="geometry" />
        </mxCell>
        <mxCell id="AQrncg6-6hbpREM-4HsJ-80" value="" style="rounded=0;whiteSpace=wrap;html=1;" vertex="1" parent="WIyWlLk6GJQsqaUBKTNV-1">
          <mxGeometry x="165" y="700" width="10" height="10" as="geometry" />
        </mxCell>
        <mxCell id="AQrncg6-6hbpREM-4HsJ-81" value="" style="rounded=0;whiteSpace=wrap;html=1;" vertex="1" parent="WIyWlLk6GJQsqaUBKTNV-1">
          <mxGeometry x="165" y="710" width="10" height="10" as="geometry" />
        </mxCell>
        <mxCell id="AQrncg6-6hbpREM-4HsJ-82" value="" style="rounded=0;whiteSpace=wrap;html=1;" vertex="1" parent="WIyWlLk6GJQsqaUBKTNV-1">
          <mxGeometry x="155" y="710" width="10" height="10" as="geometry" />
        </mxCell>
        <mxCell id="AQrncg6-6hbpREM-4HsJ-83" value="" style="rounded=0;whiteSpace=wrap;html=1;" vertex="1" parent="WIyWlLk6GJQsqaUBKTNV-1">
          <mxGeometry x="155" y="720" width="10" height="10" as="geometry" />
        </mxCell>
        <mxCell id="AQrncg6-6hbpREM-4HsJ-84" value="" style="rounded=0;whiteSpace=wrap;html=1;" vertex="1" parent="WIyWlLk6GJQsqaUBKTNV-1">
          <mxGeometry x="145" y="730" width="10" height="10" as="geometry" />
        </mxCell>
        <mxCell id="AQrncg6-6hbpREM-4HsJ-85" value="" style="rounded=0;whiteSpace=wrap;html=1;" vertex="1" parent="WIyWlLk6GJQsqaUBKTNV-1">
          <mxGeometry x="145" y="740" width="10" height="10" as="geometry" />
        </mxCell>
        <mxCell id="AQrncg6-6hbpREM-4HsJ-86" value="" style="rounded=0;whiteSpace=wrap;html=1;" vertex="1" parent="WIyWlLk6GJQsqaUBKTNV-1">
          <mxGeometry x="135" y="750" width="10" height="10" as="geometry" />
        </mxCell>
        <mxCell id="AQrncg6-6hbpREM-4HsJ-87" value="" style="rounded=0;whiteSpace=wrap;html=1;" vertex="1" parent="WIyWlLk6GJQsqaUBKTNV-1">
          <mxGeometry x="135" y="760" width="10" height="10" as="geometry" />
        </mxCell>
        <mxCell id="AQrncg6-6hbpREM-4HsJ-88" value="" style="rounded=0;whiteSpace=wrap;html=1;" vertex="1" parent="WIyWlLk6GJQsqaUBKTNV-1">
          <mxGeometry x="155" y="730" width="10" height="10" as="geometry" />
        </mxCell>
        <mxCell id="AQrncg6-6hbpREM-4HsJ-89" value="" style="rounded=0;whiteSpace=wrap;html=1;" vertex="1" parent="WIyWlLk6GJQsqaUBKTNV-1">
          <mxGeometry x="155" y="740" width="10" height="10" as="geometry" />
        </mxCell>
        <mxCell id="AQrncg6-6hbpREM-4HsJ-90" value="" style="rounded=0;whiteSpace=wrap;html=1;" vertex="1" parent="WIyWlLk6GJQsqaUBKTNV-1">
          <mxGeometry x="165" y="730" width="10" height="10" as="geometry" />
        </mxCell>
        <mxCell id="AQrncg6-6hbpREM-4HsJ-91" value="" style="rounded=0;whiteSpace=wrap;html=1;" vertex="1" parent="WIyWlLk6GJQsqaUBKTNV-1">
          <mxGeometry x="165" y="740" width="10" height="10" as="geometry" />
        </mxCell>
        <mxCell id="AQrncg6-6hbpREM-4HsJ-92" value="" style="rounded=0;whiteSpace=wrap;html=1;" vertex="1" parent="WIyWlLk6GJQsqaUBKTNV-1">
          <mxGeometry x="175" y="730" width="10" height="10" as="geometry" />
        </mxCell>
        <mxCell id="AQrncg6-6hbpREM-4HsJ-93" value="" style="rounded=0;whiteSpace=wrap;html=1;" vertex="1" parent="WIyWlLk6GJQsqaUBKTNV-1">
          <mxGeometry x="175" y="740" width="10" height="10" as="geometry" />
        </mxCell>
        <mxCell id="AQrncg6-6hbpREM-4HsJ-94" value="" style="rounded=0;whiteSpace=wrap;html=1;" vertex="1" parent="WIyWlLk6GJQsqaUBKTNV-1">
          <mxGeometry x="185" y="730" width="10" height="10" as="geometry" />
        </mxCell>
        <mxCell id="AQrncg6-6hbpREM-4HsJ-95" value="" style="rounded=0;whiteSpace=wrap;html=1;" vertex="1" parent="WIyWlLk6GJQsqaUBKTNV-1">
          <mxGeometry x="185" y="740" width="10" height="10" as="geometry" />
        </mxCell>
        <mxCell id="AQrncg6-6hbpREM-4HsJ-96" value="" style="rounded=0;whiteSpace=wrap;html=1;" vertex="1" parent="WIyWlLk6GJQsqaUBKTNV-1">
          <mxGeometry x="195" y="730" width="10" height="10" as="geometry" />
        </mxCell>
        <mxCell id="AQrncg6-6hbpREM-4HsJ-97" value="" style="rounded=0;whiteSpace=wrap;html=1;" vertex="1" parent="WIyWlLk6GJQsqaUBKTNV-1">
          <mxGeometry x="195" y="740" width="10" height="10" as="geometry" />
        </mxCell>
        <mxCell id="AQrncg6-6hbpREM-4HsJ-102" value="" style="rounded=0;whiteSpace=wrap;html=1;" vertex="1" parent="WIyWlLk6GJQsqaUBKTNV-1">
          <mxGeometry x="155" y="750" width="10" height="10" as="geometry" />
        </mxCell>
        <mxCell id="AQrncg6-6hbpREM-4HsJ-103" value="" style="rounded=0;whiteSpace=wrap;html=1;" vertex="1" parent="WIyWlLk6GJQsqaUBKTNV-1">
          <mxGeometry x="155" y="760" width="10" height="10" as="geometry" />
        </mxCell>
        <mxCell id="AQrncg6-6hbpREM-4HsJ-104" value="" style="rounded=0;whiteSpace=wrap;html=1;" vertex="1" parent="WIyWlLk6GJQsqaUBKTNV-1">
          <mxGeometry x="165" y="750" width="10" height="10" as="geometry" />
        </mxCell>
        <mxCell id="AQrncg6-6hbpREM-4HsJ-105" value="" style="rounded=0;whiteSpace=wrap;html=1;" vertex="1" parent="WIyWlLk6GJQsqaUBKTNV-1">
          <mxGeometry x="165" y="760" width="10" height="10" as="geometry" />
        </mxCell>
        <mxCell id="AQrncg6-6hbpREM-4HsJ-106" value="" style="rounded=0;whiteSpace=wrap;html=1;" vertex="1" parent="WIyWlLk6GJQsqaUBKTNV-1">
          <mxGeometry x="175" y="750" width="10" height="10" as="geometry" />
        </mxCell>
        <mxCell id="AQrncg6-6hbpREM-4HsJ-107" value="" style="rounded=0;whiteSpace=wrap;html=1;" vertex="1" parent="WIyWlLk6GJQsqaUBKTNV-1">
          <mxGeometry x="175" y="760" width="10" height="10" as="geometry" />
        </mxCell>
        <mxCell id="AQrncg6-6hbpREM-4HsJ-108" value="" style="rounded=0;whiteSpace=wrap;html=1;" vertex="1" parent="WIyWlLk6GJQsqaUBKTNV-1">
          <mxGeometry x="185" y="750" width="10" height="10" as="geometry" />
        </mxCell>
        <mxCell id="AQrncg6-6hbpREM-4HsJ-109" value="" style="rounded=0;whiteSpace=wrap;html=1;" vertex="1" parent="WIyWlLk6GJQsqaUBKTNV-1">
          <mxGeometry x="185" y="760" width="10" height="10" as="geometry" />
        </mxCell>
        <mxCell id="AQrncg6-6hbpREM-4HsJ-110" value="" style="rounded=0;whiteSpace=wrap;html=1;" vertex="1" parent="WIyWlLk6GJQsqaUBKTNV-1">
          <mxGeometry x="195" y="750" width="10" height="10" as="geometry" />
        </mxCell>
        <mxCell id="AQrncg6-6hbpREM-4HsJ-111" value="" style="rounded=0;whiteSpace=wrap;html=1;" vertex="1" parent="WIyWlLk6GJQsqaUBKTNV-1">
          <mxGeometry x="195" y="760" width="10" height="10" as="geometry" />
        </mxCell>
        <mxCell id="AQrncg6-6hbpREM-4HsJ-112" value="" style="rounded=0;whiteSpace=wrap;html=1;" vertex="1" parent="WIyWlLk6GJQsqaUBKTNV-1">
          <mxGeometry x="205" y="750" width="10" height="10" as="geometry" />
        </mxCell>
        <mxCell id="AQrncg6-6hbpREM-4HsJ-113" value="" style="rounded=0;whiteSpace=wrap;html=1;" vertex="1" parent="WIyWlLk6GJQsqaUBKTNV-1">
          <mxGeometry x="205" y="760" width="10" height="10" as="geometry" />
        </mxCell>
        <mxCell id="AQrncg6-6hbpREM-4HsJ-114" value="" style="rounded=0;whiteSpace=wrap;html=1;" vertex="1" parent="WIyWlLk6GJQsqaUBKTNV-1">
          <mxGeometry x="185" y="710" width="10" height="10" as="geometry" />
        </mxCell>
        <mxCell id="AQrncg6-6hbpREM-4HsJ-115" value="" style="rounded=0;whiteSpace=wrap;html=1;" vertex="1" parent="WIyWlLk6GJQsqaUBKTNV-1">
          <mxGeometry x="185" y="720" width="10" height="10" as="geometry" />
        </mxCell>
        <mxCell id="AQrncg6-6hbpREM-4HsJ-116" value="" style="rounded=0;whiteSpace=wrap;html=1;" vertex="1" parent="WIyWlLk6GJQsqaUBKTNV-1">
          <mxGeometry x="175" y="710" width="10" height="10" as="geometry" />
        </mxCell>
        <mxCell id="AQrncg6-6hbpREM-4HsJ-117" value="" style="rounded=0;whiteSpace=wrap;html=1;" vertex="1" parent="WIyWlLk6GJQsqaUBKTNV-1">
          <mxGeometry x="175" y="720" width="10" height="10" as="geometry" />
        </mxCell>
        <mxCell id="AQrncg6-6hbpREM-4HsJ-118" value="" style="rounded=0;whiteSpace=wrap;html=1;" vertex="1" parent="WIyWlLk6GJQsqaUBKTNV-1">
          <mxGeometry x="145" y="750" width="10" height="10" as="geometry" />
        </mxCell>
        <mxCell id="AQrncg6-6hbpREM-4HsJ-119" value="" style="rounded=0;whiteSpace=wrap;html=1;" vertex="1" parent="WIyWlLk6GJQsqaUBKTNV-1">
          <mxGeometry x="145" y="760" width="10" height="10" as="geometry" />
        </mxCell>
        <mxCell id="AQrncg6-6hbpREM-4HsJ-120" value="" style="rounded=0;whiteSpace=wrap;html=1;" vertex="1" parent="WIyWlLk6GJQsqaUBKTNV-1">
          <mxGeometry x="125" y="760" width="10" height="10" as="geometry" />
        </mxCell>
        <mxCell id="AQrncg6-6hbpREM-4HsJ-121" value="" style="rounded=0;whiteSpace=wrap;html=1;" vertex="1" parent="WIyWlLk6GJQsqaUBKTNV-1">
          <mxGeometry x="320" y="640" width="200" height="160" as="geometry" />
        </mxCell>
        <mxCell id="AQrncg6-6hbpREM-4HsJ-122" value="Fragments" style="text;whiteSpace=wrap;html=1;align=center;verticalAlign=middle;" vertex="1" parent="WIyWlLk6GJQsqaUBKTNV-1">
          <mxGeometry x="320" y="640" width="80" height="40" as="geometry" />
        </mxCell>
        <mxCell id="AQrncg6-6hbpREM-4HsJ-123" value="" style="rounded=0;whiteSpace=wrap;html=1;fillColor=#dae8fc;strokeColor=#6c8ebf;" vertex="1" parent="WIyWlLk6GJQsqaUBKTNV-1">
          <mxGeometry x="415" y="670" width="10" height="10" as="geometry" />
        </mxCell>
        <mxCell id="AQrncg6-6hbpREM-4HsJ-124" value="" style="rounded=0;whiteSpace=wrap;html=1;fillColor=#dae8fc;strokeColor=#6c8ebf;" vertex="1" parent="WIyWlLk6GJQsqaUBKTNV-1">
          <mxGeometry x="415" y="680" width="10" height="10" as="geometry" />
        </mxCell>
        <mxCell id="AQrncg6-6hbpREM-4HsJ-125" value="" style="rounded=0;whiteSpace=wrap;html=1;fillColor=#d5e8d4;strokeColor=#82b366;" vertex="1" parent="WIyWlLk6GJQsqaUBKTNV-1">
          <mxGeometry x="425" y="690" width="10" height="10" as="geometry" />
        </mxCell>
        <mxCell id="AQrncg6-6hbpREM-4HsJ-126" value="" style="rounded=0;whiteSpace=wrap;html=1;fillColor=#d5e8d4;strokeColor=#82b366;" vertex="1" parent="WIyWlLk6GJQsqaUBKTNV-1">
          <mxGeometry x="425" y="700" width="10" height="10" as="geometry" />
        </mxCell>
        <mxCell id="AQrncg6-6hbpREM-4HsJ-127" value="" style="rounded=0;whiteSpace=wrap;html=1;fillColor=#d5e8d4;strokeColor=#82b366;" vertex="1" parent="WIyWlLk6GJQsqaUBKTNV-1">
          <mxGeometry x="435" y="710" width="10" height="10" as="geometry" />
        </mxCell>
        <mxCell id="AQrncg6-6hbpREM-4HsJ-128" value="" style="rounded=0;whiteSpace=wrap;html=1;fillColor=#d5e8d4;strokeColor=#82b366;" vertex="1" parent="WIyWlLk6GJQsqaUBKTNV-1">
          <mxGeometry x="435" y="720" width="10" height="10" as="geometry" />
        </mxCell>
        <mxCell id="AQrncg6-6hbpREM-4HsJ-129" value="" style="rounded=0;whiteSpace=wrap;html=1;fillColor=#ffe6cc;strokeColor=#d79b00;" vertex="1" parent="WIyWlLk6GJQsqaUBKTNV-1">
          <mxGeometry x="445" y="730" width="10" height="10" as="geometry" />
        </mxCell>
        <mxCell id="AQrncg6-6hbpREM-4HsJ-130" value="" style="rounded=0;whiteSpace=wrap;html=1;fillColor=#ffe6cc;strokeColor=#d79b00;" vertex="1" parent="WIyWlLk6GJQsqaUBKTNV-1">
          <mxGeometry x="445" y="740" width="10" height="10" as="geometry" />
        </mxCell>
        <mxCell id="AQrncg6-6hbpREM-4HsJ-131" value="" style="rounded=0;whiteSpace=wrap;html=1;fillColor=#ffe6cc;strokeColor=#d79b00;" vertex="1" parent="WIyWlLk6GJQsqaUBKTNV-1">
          <mxGeometry x="455" y="750" width="10" height="10" as="geometry" />
        </mxCell>
        <mxCell id="AQrncg6-6hbpREM-4HsJ-132" value="" style="rounded=0;whiteSpace=wrap;html=1;fillColor=#fff2cc;strokeColor=#d6b656;" vertex="1" parent="WIyWlLk6GJQsqaUBKTNV-1">
          <mxGeometry x="455" y="760" width="10" height="10" as="geometry" />
        </mxCell>
        <mxCell id="AQrncg6-6hbpREM-4HsJ-133" value="" style="rounded=0;whiteSpace=wrap;html=1;fillColor=#ffe6cc;strokeColor=#d79b00;" vertex="1" parent="WIyWlLk6GJQsqaUBKTNV-1">
          <mxGeometry x="465" y="760" width="10" height="10" as="geometry" />
        </mxCell>
        <mxCell id="AQrncg6-6hbpREM-4HsJ-134" value="" style="rounded=0;whiteSpace=wrap;html=1;fillColor=#dae8fc;strokeColor=#6c8ebf;" vertex="1" parent="WIyWlLk6GJQsqaUBKTNV-1">
          <mxGeometry x="405" y="690" width="10" height="10" as="geometry" />
        </mxCell>
        <mxCell id="AQrncg6-6hbpREM-4HsJ-135" value="" style="rounded=0;whiteSpace=wrap;html=1;fillColor=#dae8fc;strokeColor=#6c8ebf;" vertex="1" parent="WIyWlLk6GJQsqaUBKTNV-1">
          <mxGeometry x="415" y="690" width="10" height="10" as="geometry" />
        </mxCell>
        <mxCell id="AQrncg6-6hbpREM-4HsJ-136" value="" style="rounded=0;whiteSpace=wrap;html=1;fillColor=#d5e8d4;strokeColor=#82b366;" vertex="1" parent="WIyWlLk6GJQsqaUBKTNV-1">
          <mxGeometry x="415" y="700" width="10" height="10" as="geometry" />
        </mxCell>
        <mxCell id="AQrncg6-6hbpREM-4HsJ-137" value="" style="rounded=0;whiteSpace=wrap;html=1;fillColor=#dae8fc;strokeColor=#6c8ebf;" vertex="1" parent="WIyWlLk6GJQsqaUBKTNV-1">
          <mxGeometry x="405" y="700" width="10" height="10" as="geometry" />
        </mxCell>
        <mxCell id="AQrncg6-6hbpREM-4HsJ-138" value="" style="rounded=0;whiteSpace=wrap;html=1;fillColor=#dae8fc;strokeColor=#6c8ebf;" vertex="1" parent="WIyWlLk6GJQsqaUBKTNV-1">
          <mxGeometry x="405" y="710" width="10" height="10" as="geometry" />
        </mxCell>
        <mxCell id="AQrncg6-6hbpREM-4HsJ-139" value="" style="rounded=0;whiteSpace=wrap;html=1;fillColor=#dae8fc;strokeColor=#6c8ebf;" vertex="1" parent="WIyWlLk6GJQsqaUBKTNV-1">
          <mxGeometry x="395" y="710" width="10" height="10" as="geometry" />
        </mxCell>
        <mxCell id="AQrncg6-6hbpREM-4HsJ-140" value="" style="rounded=0;whiteSpace=wrap;html=1;fillColor=#dae8fc;strokeColor=#6c8ebf;" vertex="1" parent="WIyWlLk6GJQsqaUBKTNV-1">
          <mxGeometry x="395" y="720" width="10" height="10" as="geometry" />
        </mxCell>
        <mxCell id="AQrncg6-6hbpREM-4HsJ-141" value="" style="rounded=0;whiteSpace=wrap;html=1;fillColor=#e1d5e7;strokeColor=#9673a6;" vertex="1" parent="WIyWlLk6GJQsqaUBKTNV-1">
          <mxGeometry x="385" y="730" width="10" height="10" as="geometry" />
        </mxCell>
        <mxCell id="AQrncg6-6hbpREM-4HsJ-142" value="" style="rounded=0;whiteSpace=wrap;html=1;fillColor=#e1d5e7;strokeColor=#9673a6;" vertex="1" parent="WIyWlLk6GJQsqaUBKTNV-1">
          <mxGeometry x="385" y="740" width="10" height="10" as="geometry" />
        </mxCell>
        <mxCell id="AQrncg6-6hbpREM-4HsJ-143" value="" style="rounded=0;whiteSpace=wrap;html=1;fillColor=#e1d5e7;strokeColor=#9673a6;" vertex="1" parent="WIyWlLk6GJQsqaUBKTNV-1">
          <mxGeometry x="375" y="750" width="10" height="10" as="geometry" />
        </mxCell>
        <mxCell id="AQrncg6-6hbpREM-4HsJ-144" value="" style="rounded=0;whiteSpace=wrap;html=1;fillColor=#e1d5e7;strokeColor=#9673a6;" vertex="1" parent="WIyWlLk6GJQsqaUBKTNV-1">
          <mxGeometry x="375" y="760" width="10" height="10" as="geometry" />
        </mxCell>
        <mxCell id="AQrncg6-6hbpREM-4HsJ-145" value="" style="rounded=0;whiteSpace=wrap;html=1;fillColor=#e1d5e7;strokeColor=#9673a6;" vertex="1" parent="WIyWlLk6GJQsqaUBKTNV-1">
          <mxGeometry x="395" y="730" width="10" height="10" as="geometry" />
        </mxCell>
        <mxCell id="AQrncg6-6hbpREM-4HsJ-146" value="" style="rounded=0;whiteSpace=wrap;html=1;fillColor=#e1d5e7;strokeColor=#9673a6;" vertex="1" parent="WIyWlLk6GJQsqaUBKTNV-1">
          <mxGeometry x="395" y="740" width="10" height="10" as="geometry" />
        </mxCell>
        <mxCell id="AQrncg6-6hbpREM-4HsJ-147" value="" style="rounded=0;whiteSpace=wrap;html=1;fillColor=#e1d5e7;strokeColor=#9673a6;" vertex="1" parent="WIyWlLk6GJQsqaUBKTNV-1">
          <mxGeometry x="405" y="730" width="10" height="10" as="geometry" />
        </mxCell>
        <mxCell id="AQrncg6-6hbpREM-4HsJ-148" value="" style="rounded=0;whiteSpace=wrap;html=1;fillColor=#f8cecc;strokeColor=#b85450;" vertex="1" parent="WIyWlLk6GJQsqaUBKTNV-1">
          <mxGeometry x="405" y="740" width="10" height="10" as="geometry" />
        </mxCell>
        <mxCell id="AQrncg6-6hbpREM-4HsJ-149" value="" style="rounded=0;whiteSpace=wrap;html=1;fillColor=#f8cecc;strokeColor=#b85450;" vertex="1" parent="WIyWlLk6GJQsqaUBKTNV-1">
          <mxGeometry x="415" y="730" width="10" height="10" as="geometry" />
        </mxCell>
        <mxCell id="AQrncg6-6hbpREM-4HsJ-150" value="" style="rounded=0;whiteSpace=wrap;html=1;fillColor=#f8cecc;strokeColor=#b85450;" vertex="1" parent="WIyWlLk6GJQsqaUBKTNV-1">
          <mxGeometry x="415" y="740" width="10" height="10" as="geometry" />
        </mxCell>
        <mxCell id="AQrncg6-6hbpREM-4HsJ-151" value="" style="rounded=0;whiteSpace=wrap;html=1;fillColor=#ffe6cc;strokeColor=#d79b00;" vertex="1" parent="WIyWlLk6GJQsqaUBKTNV-1">
          <mxGeometry x="425" y="730" width="10" height="10" as="geometry" />
        </mxCell>
        <mxCell id="AQrncg6-6hbpREM-4HsJ-152" value="" style="rounded=0;whiteSpace=wrap;html=1;fillColor=#ffe6cc;strokeColor=#d79b00;" vertex="1" parent="WIyWlLk6GJQsqaUBKTNV-1">
          <mxGeometry x="425" y="740" width="10" height="10" as="geometry" />
        </mxCell>
        <mxCell id="AQrncg6-6hbpREM-4HsJ-153" value="" style="rounded=0;whiteSpace=wrap;html=1;fillColor=#ffe6cc;strokeColor=#d79b00;" vertex="1" parent="WIyWlLk6GJQsqaUBKTNV-1">
          <mxGeometry x="435" y="730" width="10" height="10" as="geometry" />
        </mxCell>
        <mxCell id="AQrncg6-6hbpREM-4HsJ-154" value="" style="rounded=0;whiteSpace=wrap;html=1;fillColor=#ffe6cc;strokeColor=#d79b00;" vertex="1" parent="WIyWlLk6GJQsqaUBKTNV-1">
          <mxGeometry x="435" y="740" width="10" height="10" as="geometry" />
        </mxCell>
        <mxCell id="AQrncg6-6hbpREM-4HsJ-155" value="" style="rounded=0;whiteSpace=wrap;html=1;fillColor=#e1d5e7;strokeColor=#9673a6;" vertex="1" parent="WIyWlLk6GJQsqaUBKTNV-1">
          <mxGeometry x="395" y="750" width="10" height="10" as="geometry" />
        </mxCell>
        <mxCell id="AQrncg6-6hbpREM-4HsJ-156" value="" style="rounded=0;whiteSpace=wrap;html=1;fillColor=#f8cecc;strokeColor=#b85450;" vertex="1" parent="WIyWlLk6GJQsqaUBKTNV-1">
          <mxGeometry x="395" y="760" width="10" height="10" as="geometry" />
        </mxCell>
        <mxCell id="AQrncg6-6hbpREM-4HsJ-157" value="" style="rounded=0;whiteSpace=wrap;html=1;fillColor=#f8cecc;strokeColor=#b85450;" vertex="1" parent="WIyWlLk6GJQsqaUBKTNV-1">
          <mxGeometry x="405" y="750" width="10" height="10" as="geometry" />
        </mxCell>
        <mxCell id="AQrncg6-6hbpREM-4HsJ-158" value="" style="rounded=0;whiteSpace=wrap;html=1;fillColor=#fff2cc;strokeColor=#d6b656;" vertex="1" parent="WIyWlLk6GJQsqaUBKTNV-1">
          <mxGeometry x="405" y="760" width="10" height="10" as="geometry" />
        </mxCell>
        <mxCell id="AQrncg6-6hbpREM-4HsJ-159" value="" style="rounded=0;whiteSpace=wrap;html=1;fillColor=#fff2cc;strokeColor=#d6b656;" vertex="1" parent="WIyWlLk6GJQsqaUBKTNV-1">
          <mxGeometry x="415" y="750" width="10" height="10" as="geometry" />
        </mxCell>
        <mxCell id="AQrncg6-6hbpREM-4HsJ-160" value="" style="rounded=0;whiteSpace=wrap;html=1;fillColor=#fff2cc;strokeColor=#d6b656;" vertex="1" parent="WIyWlLk6GJQsqaUBKTNV-1">
          <mxGeometry x="415" y="760" width="10" height="10" as="geometry" />
        </mxCell>
        <mxCell id="AQrncg6-6hbpREM-4HsJ-161" value="" style="rounded=0;whiteSpace=wrap;html=1;fillColor=#fff2cc;strokeColor=#d6b656;" vertex="1" parent="WIyWlLk6GJQsqaUBKTNV-1">
          <mxGeometry x="425" y="750" width="10" height="10" as="geometry" />
        </mxCell>
        <mxCell id="AQrncg6-6hbpREM-4HsJ-162" value="" style="rounded=0;whiteSpace=wrap;html=1;fillColor=#fff2cc;strokeColor=#d6b656;" vertex="1" parent="WIyWlLk6GJQsqaUBKTNV-1">
          <mxGeometry x="425" y="760" width="10" height="10" as="geometry" />
        </mxCell>
        <mxCell id="AQrncg6-6hbpREM-4HsJ-163" value="" style="rounded=0;whiteSpace=wrap;html=1;fillColor=#ffe6cc;strokeColor=#d79b00;" vertex="1" parent="WIyWlLk6GJQsqaUBKTNV-1">
          <mxGeometry x="435" y="750" width="10" height="10" as="geometry" />
        </mxCell>
        <mxCell id="AQrncg6-6hbpREM-4HsJ-164" value="" style="rounded=0;whiteSpace=wrap;html=1;fillColor=#fff2cc;strokeColor=#d6b656;" vertex="1" parent="WIyWlLk6GJQsqaUBKTNV-1">
          <mxGeometry x="435" y="760" width="10" height="10" as="geometry" />
        </mxCell>
        <mxCell id="AQrncg6-6hbpREM-4HsJ-165" value="" style="rounded=0;whiteSpace=wrap;html=1;fillColor=#ffe6cc;strokeColor=#d79b00;" vertex="1" parent="WIyWlLk6GJQsqaUBKTNV-1">
          <mxGeometry x="445" y="750" width="10" height="10" as="geometry" />
        </mxCell>
        <mxCell id="AQrncg6-6hbpREM-4HsJ-166" value="" style="rounded=0;whiteSpace=wrap;html=1;fillColor=#fff2cc;strokeColor=#d6b656;" vertex="1" parent="WIyWlLk6GJQsqaUBKTNV-1">
          <mxGeometry x="445" y="760" width="10" height="10" as="geometry" />
        </mxCell>
        <mxCell id="AQrncg6-6hbpREM-4HsJ-167" value="" style="rounded=0;whiteSpace=wrap;html=1;fillColor=#d5e8d4;strokeColor=#82b366;" vertex="1" parent="WIyWlLk6GJQsqaUBKTNV-1">
          <mxGeometry x="425" y="710" width="10" height="10" as="geometry" />
        </mxCell>
        <mxCell id="AQrncg6-6hbpREM-4HsJ-168" value="" style="rounded=0;whiteSpace=wrap;html=1;fillColor=#ffe6cc;strokeColor=#d79b00;" vertex="1" parent="WIyWlLk6GJQsqaUBKTNV-1">
          <mxGeometry x="425" y="720" width="10" height="10" as="geometry" />
        </mxCell>
        <mxCell id="AQrncg6-6hbpREM-4HsJ-169" value="" style="rounded=0;whiteSpace=wrap;html=1;fillColor=#d5e8d4;strokeColor=#82b366;" vertex="1" parent="WIyWlLk6GJQsqaUBKTNV-1">
          <mxGeometry x="415" y="710" width="10" height="10" as="geometry" />
        </mxCell>
        <mxCell id="AQrncg6-6hbpREM-4HsJ-170" value="" style="rounded=0;whiteSpace=wrap;html=1;fillColor=#f8cecc;strokeColor=#b85450;" vertex="1" parent="WIyWlLk6GJQsqaUBKTNV-1">
          <mxGeometry x="415" y="720" width="10" height="10" as="geometry" />
        </mxCell>
        <mxCell id="AQrncg6-6hbpREM-4HsJ-171" value="" style="rounded=0;whiteSpace=wrap;html=1;fillColor=#e1d5e7;strokeColor=#9673a6;" vertex="1" parent="WIyWlLk6GJQsqaUBKTNV-1">
          <mxGeometry x="385" y="750" width="10" height="10" as="geometry" />
        </mxCell>
        <mxCell id="AQrncg6-6hbpREM-4HsJ-172" value="" style="rounded=0;whiteSpace=wrap;html=1;fillColor=#e1d5e7;strokeColor=#9673a6;" vertex="1" parent="WIyWlLk6GJQsqaUBKTNV-1">
          <mxGeometry x="385" y="760" width="10" height="10" as="geometry" />
        </mxCell>
        <mxCell id="AQrncg6-6hbpREM-4HsJ-173" value="" style="rounded=0;whiteSpace=wrap;html=1;fillColor=#e1d5e7;strokeColor=#9673a6;" vertex="1" parent="WIyWlLk6GJQsqaUBKTNV-1">
          <mxGeometry x="365" y="760" width="10" height="10" as="geometry" />
        </mxCell>
        <mxCell id="AQrncg6-6hbpREM-4HsJ-174" value="" style="rounded=0;whiteSpace=wrap;html=1;fillColor=#f8cecc;strokeColor=#b85450;" vertex="1" parent="WIyWlLk6GJQsqaUBKTNV-1">
          <mxGeometry x="425" y="730" width="10" height="10" as="geometry" />
        </mxCell>
        <mxCell id="AQrncg6-6hbpREM-4HsJ-176" value="" style="rounded=0;whiteSpace=wrap;html=1;fillColor=#e1d5e7;strokeColor=#9673a6;" vertex="1" parent="WIyWlLk6GJQsqaUBKTNV-1">
          <mxGeometry x="405" y="720" width="10" height="10" as="geometry" />
        </mxCell>
        <mxCell id="AQrncg6-6hbpREM-4HsJ-177" value="" style="rounded=0;whiteSpace=wrap;html=1;" vertex="1" parent="WIyWlLk6GJQsqaUBKTNV-1">
          <mxGeometry x="165" y="720" width="10" height="10" as="geometry" />
        </mxCell>
        <mxCell id="AQrncg6-6hbpREM-4HsJ-181" style="edgeStyle=orthogonalEdgeStyle;rounded=0;orthogonalLoop=1;jettySize=auto;html=1;exitX=1;exitY=0.5;exitDx=0;exitDy=0;entryX=0;entryY=0.5;entryDx=0;entryDy=0;" edge="1" parent="WIyWlLk6GJQsqaUBKTNV-1" source="AQrncg6-6hbpREM-4HsJ-179" target="AQrncg6-6hbpREM-4HsJ-180">
          <mxGeometry relative="1" as="geometry" />
        </mxCell>
        <mxCell id="AQrncg6-6hbpREM-4HsJ-203" value="Vertex&lt;br style=&quot;border-color: var(--border-color); font-size: 12px;&quot;&gt;&lt;span style=&quot;font-size: 12px; background-color: rgb(251, 251, 251);&quot;&gt;data&lt;/span&gt;" style="edgeLabel;html=1;align=center;verticalAlign=bottom;resizable=0;points=[];labelPosition=center;verticalLabelPosition=top;" vertex="1" connectable="0" parent="AQrncg6-6hbpREM-4HsJ-181">
          <mxGeometry relative="1" as="geometry">
            <mxPoint y="-10" as="offset" />
          </mxGeometry>
        </mxCell>
        <mxCell id="AQrncg6-6hbpREM-4HsJ-179" value="CPU" style="rounded=0;whiteSpace=wrap;html=1;" vertex="1" parent="WIyWlLk6GJQsqaUBKTNV-1">
          <mxGeometry x="80" y="880" width="40" height="40" as="geometry" />
        </mxCell>
        <mxCell id="AQrncg6-6hbpREM-4HsJ-180" value="GPU" style="rounded=0;whiteSpace=wrap;html=1;" vertex="1" parent="WIyWlLk6GJQsqaUBKTNV-1">
          <mxGeometry x="160" y="880" width="40" height="40" as="geometry" />
        </mxCell>
        <mxCell id="AQrncg6-6hbpREM-4HsJ-188" value="x1" style="rounded=0;whiteSpace=wrap;html=1;" vertex="1" parent="WIyWlLk6GJQsqaUBKTNV-1">
          <mxGeometry x="80" y="1000" width="40" height="40" as="geometry" />
        </mxCell>
        <mxCell id="AQrncg6-6hbpREM-4HsJ-189" value="y1" style="rounded=0;whiteSpace=wrap;html=1;" vertex="1" parent="WIyWlLk6GJQsqaUBKTNV-1">
          <mxGeometry x="120" y="1000" width="40" height="40" as="geometry" />
        </mxCell>
        <mxCell id="AQrncg6-6hbpREM-4HsJ-190" value="z1" style="rounded=0;whiteSpace=wrap;html=1;" vertex="1" parent="WIyWlLk6GJQsqaUBKTNV-1">
          <mxGeometry x="160" y="1000" width="40" height="40" as="geometry" />
        </mxCell>
        <mxCell id="AQrncg6-6hbpREM-4HsJ-191" value="x2" style="rounded=0;whiteSpace=wrap;html=1;" vertex="1" parent="WIyWlLk6GJQsqaUBKTNV-1">
          <mxGeometry x="200" y="1000" width="40" height="40" as="geometry" />
        </mxCell>
        <mxCell id="AQrncg6-6hbpREM-4HsJ-192" value="y2" style="rounded=0;whiteSpace=wrap;html=1;" vertex="1" parent="WIyWlLk6GJQsqaUBKTNV-1">
          <mxGeometry x="240" y="1000" width="40" height="40" as="geometry" />
        </mxCell>
        <mxCell id="AQrncg6-6hbpREM-4HsJ-193" value="z2" style="rounded=0;whiteSpace=wrap;html=1;" vertex="1" parent="WIyWlLk6GJQsqaUBKTNV-1">
          <mxGeometry x="280" y="1000" width="40" height="40" as="geometry" />
        </mxCell>
        <mxCell id="AQrncg6-6hbpREM-4HsJ-194" value="x3" style="rounded=0;whiteSpace=wrap;html=1;" vertex="1" parent="WIyWlLk6GJQsqaUBKTNV-1">
          <mxGeometry x="320" y="1000" width="40" height="40" as="geometry" />
        </mxCell>
        <mxCell id="AQrncg6-6hbpREM-4HsJ-195" value="y3" style="rounded=0;whiteSpace=wrap;html=1;" vertex="1" parent="WIyWlLk6GJQsqaUBKTNV-1">
          <mxGeometry x="360" y="1000" width="40" height="40" as="geometry" />
        </mxCell>
        <mxCell id="AQrncg6-6hbpREM-4HsJ-196" value="z3" style="rounded=0;whiteSpace=wrap;html=1;" vertex="1" parent="WIyWlLk6GJQsqaUBKTNV-1">
          <mxGeometry x="400" y="1000" width="40" height="40" as="geometry" />
        </mxCell>
        <mxCell id="AQrncg6-6hbpREM-4HsJ-198" value="" style="endArrow=none;dashed=1;html=1;rounded=0;" edge="1" parent="WIyWlLk6GJQsqaUBKTNV-1">
          <mxGeometry width="50" height="50" relative="1" as="geometry">
            <mxPoint x="80" y="1000" as="sourcePoint" />
            <mxPoint x="80" y="960" as="targetPoint" />
          </mxGeometry>
        </mxCell>
        <mxCell id="AQrncg6-6hbpREM-4HsJ-199" value="" style="endArrow=none;dashed=1;html=1;rounded=0;" edge="1" parent="WIyWlLk6GJQsqaUBKTNV-1">
          <mxGeometry width="50" height="50" relative="1" as="geometry">
            <mxPoint x="199.8" y="1000" as="sourcePoint" />
            <mxPoint x="199.8" y="960" as="targetPoint" />
          </mxGeometry>
        </mxCell>
        <mxCell id="AQrncg6-6hbpREM-4HsJ-201" value="" style="endArrow=classic;startArrow=classic;html=1;rounded=0;" edge="1" parent="WIyWlLk6GJQsqaUBKTNV-1">
          <mxGeometry width="50" height="50" relative="1" as="geometry">
            <mxPoint x="80" y="990" as="sourcePoint" />
            <mxPoint x="200" y="990" as="targetPoint" />
          </mxGeometry>
        </mxCell>
        <mxCell id="AQrncg6-6hbpREM-4HsJ-202" value="in_position" style="edgeLabel;html=1;align=center;verticalAlign=bottom;resizable=0;points=[];labelPosition=center;verticalLabelPosition=top;" vertex="1" connectable="0" parent="AQrncg6-6hbpREM-4HsJ-201">
          <mxGeometry x="0.0067" y="-1" relative="1" as="geometry">
            <mxPoint as="offset" />
          </mxGeometry>
        </mxCell>
        <mxCell id="AQrncg6-6hbpREM-4HsJ-204" value="&lt;span style=&quot;color: rgb(0, 0, 0); font-family: Helvetica; font-size: 12px; font-style: normal; font-variant-ligatures: normal; font-variant-caps: normal; font-weight: 400; letter-spacing: normal; orphans: 2; text-indent: 0px; text-transform: none; widows: 2; word-spacing: 0px; -webkit-text-stroke-width: 0px; background-color: rgb(251, 251, 251); text-decoration-thickness: initial; text-decoration-style: initial; text-decoration-color: initial; float: none; display: inline !important;&quot;&gt;VBO&lt;br&gt;&lt;/span&gt;" style="text;whiteSpace=wrap;html=1;align=center;verticalAlign=middle;" vertex="1" parent="WIyWlLk6GJQsqaUBKTNV-1">
          <mxGeometry x="240" y="920" width="40" height="40" as="geometry" />
        </mxCell>
        <mxCell id="AQrncg6-6hbpREM-4HsJ-206" value="Cube" style="text;whiteSpace=wrap;html=1;align=center;verticalAlign=middle;" vertex="1" parent="WIyWlLk6GJQsqaUBKTNV-1">
          <mxGeometry x="680" y="760" width="80" height="40" as="geometry" />
        </mxCell>
        <mxCell id="AQrncg6-6hbpREM-4HsJ-207" value="" style="shape=waypoint;sketch=0;fillStyle=solid;size=6;pointerEvents=1;points=[];fillColor=none;resizable=1;rotatable=1;perimeter=centerPerimeter;snapToPoint=1;movable=1;deletable=1;editable=1;locked=0;connectable=1;" vertex="1" parent="WIyWlLk6GJQsqaUBKTNV-1">
          <mxGeometry x="720" y="880" width="10" height="10" as="geometry" />
        </mxCell>
        <mxCell id="AQrncg6-6hbpREM-4HsJ-208" value="" style="shape=waypoint;sketch=0;fillStyle=solid;size=6;pointerEvents=1;points=[];fillColor=none;resizable=1;rotatable=1;perimeter=centerPerimeter;snapToPoint=1;movable=1;deletable=1;editable=1;locked=0;connectable=1;" vertex="1" parent="WIyWlLk6GJQsqaUBKTNV-1">
          <mxGeometry x="750" y="850" width="10" height="10" as="geometry" />
        </mxCell>
        <mxCell id="AQrncg6-6hbpREM-4HsJ-209" value="" style="shape=waypoint;sketch=0;fillStyle=solid;size=6;pointerEvents=1;points=[];fillColor=none;resizable=1;rotatable=1;perimeter=centerPerimeter;snapToPoint=1;movable=1;deletable=1;editable=1;locked=0;connectable=1;" vertex="1" parent="WIyWlLk6GJQsqaUBKTNV-1">
          <mxGeometry x="830" y="850" width="10" height="10" as="geometry" />
        </mxCell>
        <mxCell id="AQrncg6-6hbpREM-4HsJ-213" value="" style="shape=waypoint;sketch=0;fillStyle=solid;size=6;pointerEvents=1;points=[];fillColor=none;resizable=1;rotatable=1;perimeter=centerPerimeter;snapToPoint=1;movable=1;deletable=1;editable=1;locked=0;connectable=1;" vertex="1" parent="WIyWlLk6GJQsqaUBKTNV-1">
          <mxGeometry x="800" y="880" width="10" height="10" as="geometry" />
        </mxCell>
        <mxCell id="AQrncg6-6hbpREM-4HsJ-214" value="" style="shape=waypoint;sketch=0;fillStyle=solid;size=6;pointerEvents=1;points=[];fillColor=none;resizable=1;rotatable=1;perimeter=centerPerimeter;snapToPoint=1;movable=1;deletable=1;editable=1;locked=0;connectable=1;" vertex="1" parent="WIyWlLk6GJQsqaUBKTNV-1">
          <mxGeometry x="720" y="810" width="10" height="10" as="geometry" />
        </mxCell>
        <mxCell id="AQrncg6-6hbpREM-4HsJ-215" value="" style="shape=waypoint;sketch=0;fillStyle=solid;size=6;pointerEvents=1;points=[];fillColor=none;resizable=1;rotatable=1;perimeter=centerPerimeter;snapToPoint=1;movable=1;deletable=1;editable=1;locked=0;connectable=1;" vertex="1" parent="WIyWlLk6GJQsqaUBKTNV-1">
          <mxGeometry x="750" y="780" width="10" height="10" as="geometry" />
        </mxCell>
        <mxCell id="AQrncg6-6hbpREM-4HsJ-216" value="" style="shape=waypoint;sketch=0;fillStyle=solid;size=6;pointerEvents=1;points=[];fillColor=none;resizable=1;rotatable=1;perimeter=centerPerimeter;snapToPoint=1;movable=1;deletable=1;editable=1;locked=0;connectable=1;" vertex="1" parent="WIyWlLk6GJQsqaUBKTNV-1">
          <mxGeometry x="830" y="780" width="10" height="10" as="geometry" />
        </mxCell>
        <mxCell id="AQrncg6-6hbpREM-4HsJ-217" value="" style="shape=waypoint;sketch=0;fillStyle=solid;size=6;pointerEvents=1;points=[];fillColor=none;resizable=1;rotatable=1;perimeter=centerPerimeter;snapToPoint=1;movable=1;deletable=1;editable=1;locked=0;connectable=1;" vertex="1" parent="WIyWlLk6GJQsqaUBKTNV-1">
          <mxGeometry x="800" y="810" width="10" height="10" as="geometry" />
        </mxCell>
        <mxCell id="AQrncg6-6hbpREM-4HsJ-218" value="" style="endArrow=none;html=1;rounded=0;dashed=1;" edge="1" parent="WIyWlLk6GJQsqaUBKTNV-1" source="AQrncg6-6hbpREM-4HsJ-215" target="AQrncg6-6hbpREM-4HsJ-208">
          <mxGeometry width="50" height="50" relative="1" as="geometry">
            <mxPoint x="840" y="900" as="sourcePoint" />
            <mxPoint x="890" y="850" as="targetPoint" />
          </mxGeometry>
        </mxCell>
        <mxCell id="AQrncg6-6hbpREM-4HsJ-219" value="" style="endArrow=none;html=1;rounded=0;dashed=1;exitX=0.8;exitY=0.58;exitDx=0;exitDy=0;exitPerimeter=0;entryX=0.2;entryY=1.18;entryDx=0;entryDy=0;entryPerimeter=0;" edge="1" parent="WIyWlLk6GJQsqaUBKTNV-1" source="AQrncg6-6hbpREM-4HsJ-208" target="AQrncg6-6hbpREM-4HsJ-207">
          <mxGeometry width="50" height="50" relative="1" as="geometry">
            <mxPoint x="765" y="795" as="sourcePoint" />
            <mxPoint x="765" y="865" as="targetPoint" />
          </mxGeometry>
        </mxCell>
        <mxCell id="AQrncg6-6hbpREM-4HsJ-220" value="" style="endArrow=none;html=1;rounded=0;dashed=1;exitX=0.8;exitY=0.42;exitDx=0;exitDy=0;exitPerimeter=0;entryX=0.96;entryY=0.42;entryDx=0;entryDy=0;entryPerimeter=0;" edge="1" parent="WIyWlLk6GJQsqaUBKTNV-1" source="AQrncg6-6hbpREM-4HsJ-208" target="AQrncg6-6hbpREM-4HsJ-209">
          <mxGeometry width="50" height="50" relative="1" as="geometry">
            <mxPoint x="775" y="805" as="sourcePoint" />
            <mxPoint x="775" y="875" as="targetPoint" />
          </mxGeometry>
        </mxCell>
        <mxCell id="AQrncg6-6hbpREM-4HsJ-221" value="" style="endArrow=none;html=1;rounded=0;exitX=0.8;exitY=0.5;exitDx=0;exitDy=0;exitPerimeter=0;" edge="1" parent="WIyWlLk6GJQsqaUBKTNV-1" source="AQrncg6-6hbpREM-4HsJ-214" target="AQrncg6-6hbpREM-4HsJ-207">
          <mxGeometry width="50" height="50" relative="1" as="geometry">
            <mxPoint x="785" y="815" as="sourcePoint" />
            <mxPoint x="785" y="885" as="targetPoint" />
          </mxGeometry>
        </mxCell>
        <mxCell id="AQrncg6-6hbpREM-4HsJ-225" value="" style="endArrow=none;html=1;rounded=0;exitX=0.96;exitY=0.9;exitDx=0;exitDy=0;exitPerimeter=0;" edge="1" parent="WIyWlLk6GJQsqaUBKTNV-1" source="AQrncg6-6hbpREM-4HsJ-213" target="AQrncg6-6hbpREM-4HsJ-217">
          <mxGeometry width="50" height="50" relative="1" as="geometry">
            <mxPoint x="860" y="990" as="sourcePoint" />
            <mxPoint x="910" y="940" as="targetPoint" />
          </mxGeometry>
        </mxCell>
        <mxCell id="AQrncg6-6hbpREM-4HsJ-226" value="" style="endArrow=none;html=1;rounded=0;exitX=0.36;exitY=0.94;exitDx=0;exitDy=0;exitPerimeter=0;entryX=1;entryY=-0.1;entryDx=0;entryDy=0;entryPerimeter=0;" edge="1" parent="WIyWlLk6GJQsqaUBKTNV-1" source="AQrncg6-6hbpREM-4HsJ-209" target="AQrncg6-6hbpREM-4HsJ-216">
          <mxGeometry width="50" height="50" relative="1" as="geometry">
            <mxPoint x="815" y="895" as="sourcePoint" />
            <mxPoint x="815" y="825" as="targetPoint" />
          </mxGeometry>
        </mxCell>
        <mxCell id="AQrncg6-6hbpREM-4HsJ-227" value="" style="endArrow=none;html=1;rounded=0;entryX=0.8;entryY=0.46;entryDx=0;entryDy=0;entryPerimeter=0;" edge="1" parent="WIyWlLk6GJQsqaUBKTNV-1" source="AQrncg6-6hbpREM-4HsJ-213" target="AQrncg6-6hbpREM-4HsJ-209">
          <mxGeometry width="50" height="50" relative="1" as="geometry">
            <mxPoint x="825" y="905" as="sourcePoint" />
            <mxPoint x="830" y="860" as="targetPoint" />
          </mxGeometry>
        </mxCell>
        <mxCell id="AQrncg6-6hbpREM-4HsJ-228" value="" style="endArrow=none;html=1;rounded=0;exitX=0;exitY=0.54;exitDx=0;exitDy=0;exitPerimeter=0;entryX=0.84;entryY=0.9;entryDx=0;entryDy=0;entryPerimeter=0;" edge="1" parent="WIyWlLk6GJQsqaUBKTNV-1" source="AQrncg6-6hbpREM-4HsJ-207" target="AQrncg6-6hbpREM-4HsJ-213">
          <mxGeometry width="50" height="50" relative="1" as="geometry">
            <mxPoint x="835" y="915" as="sourcePoint" />
            <mxPoint x="835" y="845" as="targetPoint" />
          </mxGeometry>
        </mxCell>
        <mxCell id="AQrncg6-6hbpREM-4HsJ-229" value="" style="endArrow=none;html=1;rounded=0;exitX=0.28;exitY=0.26;exitDx=0;exitDy=0;exitPerimeter=0;entryX=0.08;entryY=0.74;entryDx=0;entryDy=0;entryPerimeter=0;" edge="1" parent="WIyWlLk6GJQsqaUBKTNV-1" source="AQrncg6-6hbpREM-4HsJ-216" target="AQrncg6-6hbpREM-4HsJ-215">
          <mxGeometry width="50" height="50" relative="1" as="geometry">
            <mxPoint x="845" y="925" as="sourcePoint" />
            <mxPoint x="845" y="855" as="targetPoint" />
          </mxGeometry>
        </mxCell>
        <mxCell id="AQrncg6-6hbpREM-4HsJ-230" value="" style="endArrow=none;html=1;rounded=0;exitX=0.84;exitY=0.14;exitDx=0;exitDy=0;exitPerimeter=0;entryX=0.64;entryY=-0.18;entryDx=0;entryDy=0;entryPerimeter=0;" edge="1" parent="WIyWlLk6GJQsqaUBKTNV-1" source="AQrncg6-6hbpREM-4HsJ-217" target="AQrncg6-6hbpREM-4HsJ-216">
          <mxGeometry width="50" height="50" relative="1" as="geometry">
            <mxPoint x="855" y="935" as="sourcePoint" />
            <mxPoint x="855" y="865" as="targetPoint" />
          </mxGeometry>
        </mxCell>
        <mxCell id="AQrncg6-6hbpREM-4HsJ-231" value="" style="endArrow=none;html=1;rounded=0;exitX=-0.12;exitY=0.62;exitDx=0;exitDy=0;exitPerimeter=0;entryX=0.36;entryY=0.26;entryDx=0;entryDy=0;entryPerimeter=0;" edge="1" parent="WIyWlLk6GJQsqaUBKTNV-1" source="AQrncg6-6hbpREM-4HsJ-217" target="AQrncg6-6hbpREM-4HsJ-214">
          <mxGeometry width="50" height="50" relative="1" as="geometry">
            <mxPoint x="865" y="945" as="sourcePoint" />
            <mxPoint x="865" y="875" as="targetPoint" />
          </mxGeometry>
        </mxCell>
        <mxCell id="AQrncg6-6hbpREM-4HsJ-232" value="" style="endArrow=none;html=1;rounded=0;exitX=0.32;exitY=0.26;exitDx=0;exitDy=0;exitPerimeter=0;entryX=0.88;entryY=0.82;entryDx=0;entryDy=0;entryPerimeter=0;" edge="1" parent="WIyWlLk6GJQsqaUBKTNV-1" source="AQrncg6-6hbpREM-4HsJ-214" target="AQrncg6-6hbpREM-4HsJ-215">
          <mxGeometry width="50" height="50" relative="1" as="geometry">
            <mxPoint x="875" y="955" as="sourcePoint" />
            <mxPoint x="875" y="885" as="targetPoint" />
          </mxGeometry>
        </mxCell>
        <mxCell id="AQrncg6-6hbpREM-4HsJ-234" style="edgeStyle=orthogonalEdgeStyle;rounded=0;orthogonalLoop=1;jettySize=auto;html=1;exitX=1;exitY=0.5;exitDx=0;exitDy=0;entryX=0;entryY=0.5;entryDx=0;entryDy=0;" edge="1" parent="WIyWlLk6GJQsqaUBKTNV-1" source="AQrncg6-6hbpREM-4HsJ-235" target="AQrncg6-6hbpREM-4HsJ-237">
          <mxGeometry relative="1" as="geometry" />
        </mxCell>
        <mxCell id="AQrncg6-6hbpREM-4HsJ-248" value="World&lt;br style=&quot;border-color: var(--border-color); font-size: 12px; background-color: rgb(251, 251, 251);&quot;&gt;space" style="edgeLabel;html=1;align=center;verticalAlign=bottom;resizable=0;points=[];" vertex="1" connectable="0" parent="AQrncg6-6hbpREM-4HsJ-234">
          <mxGeometry x="0.0167" y="1" relative="1" as="geometry">
            <mxPoint y="-9" as="offset" />
          </mxGeometry>
        </mxCell>
        <mxCell id="AQrncg6-6hbpREM-4HsJ-235" value="Model&lt;br&gt;transform" style="rounded=1;whiteSpace=wrap;html=1;fontSize=12;glass=0;strokeWidth=1;shadow=0;" vertex="1" parent="WIyWlLk6GJQsqaUBKTNV-1">
          <mxGeometry x="720" y="160" width="80" height="40" as="geometry" />
        </mxCell>
        <mxCell id="AQrncg6-6hbpREM-4HsJ-236" style="edgeStyle=orthogonalEdgeStyle;rounded=0;orthogonalLoop=1;jettySize=auto;html=1;exitX=1;exitY=0.5;exitDx=0;exitDy=0;entryX=0;entryY=0.5;entryDx=0;entryDy=0;" edge="1" parent="WIyWlLk6GJQsqaUBKTNV-1" source="AQrncg6-6hbpREM-4HsJ-237" target="AQrncg6-6hbpREM-4HsJ-238">
          <mxGeometry relative="1" as="geometry" />
        </mxCell>
        <mxCell id="AQrncg6-6hbpREM-4HsJ-252" value="Camera&lt;br style=&quot;border-color: var(--border-color); font-size: 12px; background-color: rgb(251, 251, 251);&quot;&gt;space" style="edgeLabel;html=1;align=center;verticalAlign=bottom;resizable=0;points=[];" vertex="1" connectable="0" parent="AQrncg6-6hbpREM-4HsJ-236">
          <mxGeometry x="-0.0667" y="-1" relative="1" as="geometry">
            <mxPoint y="-11" as="offset" />
          </mxGeometry>
        </mxCell>
        <mxCell id="AQrncg6-6hbpREM-4HsJ-237" value="View&lt;br&gt;transform" style="rounded=1;whiteSpace=wrap;html=1;fontSize=12;glass=0;strokeWidth=1;shadow=0;" vertex="1" parent="WIyWlLk6GJQsqaUBKTNV-1">
          <mxGeometry x="840" y="160" width="80" height="40" as="geometry" />
        </mxCell>
        <mxCell id="AQrncg6-6hbpREM-4HsJ-243" style="edgeStyle=orthogonalEdgeStyle;rounded=0;orthogonalLoop=1;jettySize=auto;html=1;exitX=1;exitY=0.5;exitDx=0;exitDy=0;entryX=0;entryY=0.5;entryDx=0;entryDy=0;" edge="1" parent="WIyWlLk6GJQsqaUBKTNV-1" source="AQrncg6-6hbpREM-4HsJ-238">
          <mxGeometry relative="1" as="geometry">
            <mxPoint x="1080" y="180" as="targetPoint" />
          </mxGeometry>
        </mxCell>
        <mxCell id="AQrncg6-6hbpREM-4HsJ-247" value="Clip&lt;br style=&quot;border-color: var(--border-color); font-size: 12px; background-color: rgb(251, 251, 251);&quot;&gt;space" style="edgeLabel;html=1;align=center;verticalAlign=bottom;resizable=0;points=[];" vertex="1" connectable="0" parent="AQrncg6-6hbpREM-4HsJ-243">
          <mxGeometry x="-0.1112" y="1" relative="1" as="geometry">
            <mxPoint y="-9" as="offset" />
          </mxGeometry>
        </mxCell>
        <mxCell id="AQrncg6-6hbpREM-4HsJ-238" value="Projection&lt;br&gt;transform" style="rounded=1;whiteSpace=wrap;html=1;fontSize=12;glass=0;strokeWidth=1;shadow=0;" vertex="1" parent="WIyWlLk6GJQsqaUBKTNV-1">
          <mxGeometry x="960" y="160" width="80" height="40" as="geometry" />
        </mxCell>
        <mxCell id="AQrncg6-6hbpREM-4HsJ-245" value="" style="endArrow=classic;html=1;rounded=0;" edge="1" parent="WIyWlLk6GJQsqaUBKTNV-1">
          <mxGeometry width="50" height="50" relative="1" as="geometry">
            <mxPoint x="680" y="180" as="sourcePoint" />
            <mxPoint x="720" y="180" as="targetPoint" />
          </mxGeometry>
        </mxCell>
        <mxCell id="AQrncg6-6hbpREM-4HsJ-246" value="Model&lt;br style=&quot;border-color: var(--border-color); font-size: 12px; background-color: rgb(251, 251, 251);&quot;&gt;&lt;span style=&quot;font-size: 12px; background-color: rgb(251, 251, 251);&quot;&gt;space&lt;/span&gt;" style="edgeLabel;html=1;align=center;verticalAlign=bottom;resizable=0;points=[];labelPosition=center;verticalLabelPosition=top;" vertex="1" connectable="0" parent="AQrncg6-6hbpREM-4HsJ-245">
          <mxGeometry x="-0.107" relative="1" as="geometry">
            <mxPoint y="-10" as="offset" />
          </mxGeometry>
        </mxCell>
        <mxCell id="AQrncg6-6hbpREM-4HsJ-253" value="" style="shape=waypoint;sketch=0;fillStyle=solid;size=6;pointerEvents=1;points=[];fillColor=none;resizable=0;rotatable=0;perimeter=centerPerimeter;snapToPoint=1;" vertex="1" parent="WIyWlLk6GJQsqaUBKTNV-1">
          <mxGeometry x="720" y="660" width="20" height="20" as="geometry" />
        </mxCell>
        <mxCell id="AQrncg6-6hbpREM-4HsJ-254" value="" style="endArrow=none;dashed=1;html=1;rounded=0;" edge="1" parent="WIyWlLk6GJQsqaUBKTNV-1">
          <mxGeometry width="50" height="50" relative="1" as="geometry">
            <mxPoint x="730" y="670" as="sourcePoint" />
            <mxPoint x="810" y="590" as="targetPoint" />
          </mxGeometry>
        </mxCell>
        <mxCell id="AQrncg6-6hbpREM-4HsJ-256" value="" style="endArrow=none;dashed=1;html=1;rounded=0;" edge="1" parent="WIyWlLk6GJQsqaUBKTNV-1" source="AQrncg6-6hbpREM-4HsJ-253">
          <mxGeometry width="50" height="50" relative="1" as="geometry">
            <mxPoint x="780" y="695" as="sourcePoint" />
            <mxPoint x="850" y="670" as="targetPoint" />
          </mxGeometry>
        </mxCell>
        <mxCell id="AQrncg6-6hbpREM-4HsJ-257" value="" style="endArrow=none;dashed=1;html=1;rounded=0;" edge="1" parent="WIyWlLk6GJQsqaUBKTNV-1">
          <mxGeometry width="50" height="50" relative="1" as="geometry">
            <mxPoint x="730" y="670" as="sourcePoint" />
            <mxPoint x="850" y="610" as="targetPoint" />
          </mxGeometry>
        </mxCell>
        <mxCell id="AQrncg6-6hbpREM-4HsJ-258" value="" style="endArrow=none;dashed=1;html=1;rounded=0;" edge="1" parent="WIyWlLk6GJQsqaUBKTNV-1">
          <mxGeometry width="50" height="50" relative="1" as="geometry">
            <mxPoint x="730" y="670" as="sourcePoint" />
            <mxPoint x="810" y="650" as="targetPoint" />
          </mxGeometry>
        </mxCell>
        <mxCell id="AQrncg6-6hbpREM-4HsJ-260" value="" style="endArrow=none;html=1;rounded=0;" edge="1" parent="WIyWlLk6GJQsqaUBKTNV-1">
          <mxGeometry width="50" height="50" relative="1" as="geometry">
            <mxPoint x="850" y="670" as="sourcePoint" />
            <mxPoint x="810" y="650" as="targetPoint" />
          </mxGeometry>
        </mxCell>
        <mxCell id="AQrncg6-6hbpREM-4HsJ-261" value="" style="endArrow=none;html=1;rounded=0;" edge="1" parent="WIyWlLk6GJQsqaUBKTNV-1">
          <mxGeometry width="50" height="50" relative="1" as="geometry">
            <mxPoint x="850" y="670" as="sourcePoint" />
            <mxPoint x="850" y="610" as="targetPoint" />
          </mxGeometry>
        </mxCell>
        <mxCell id="AQrncg6-6hbpREM-4HsJ-263" value="" style="endArrow=none;html=1;rounded=0;" edge="1" parent="WIyWlLk6GJQsqaUBKTNV-1">
          <mxGeometry width="50" height="50" relative="1" as="geometry">
            <mxPoint x="850" y="610" as="sourcePoint" />
            <mxPoint x="810" y="590" as="targetPoint" />
          </mxGeometry>
        </mxCell>
        <mxCell id="AQrncg6-6hbpREM-4HsJ-265" value="" style="endArrow=none;html=1;rounded=0;" edge="1" parent="WIyWlLk6GJQsqaUBKTNV-1">
          <mxGeometry width="50" height="50" relative="1" as="geometry">
            <mxPoint x="1010" y="670" as="sourcePoint" />
            <mxPoint x="1010" y="530" as="targetPoint" />
          </mxGeometry>
        </mxCell>
        <mxCell id="AQrncg6-6hbpREM-4HsJ-266" value="" style="endArrow=none;html=1;rounded=0;" edge="1" parent="WIyWlLk6GJQsqaUBKTNV-1">
          <mxGeometry width="50" height="50" relative="1" as="geometry">
            <mxPoint x="850" y="670" as="sourcePoint" />
            <mxPoint x="1010" y="670" as="targetPoint" />
          </mxGeometry>
        </mxCell>
        <mxCell id="AQrncg6-6hbpREM-4HsJ-267" value="" style="endArrow=none;html=1;rounded=0;" edge="1" parent="WIyWlLk6GJQsqaUBKTNV-1">
          <mxGeometry width="50" height="50" relative="1" as="geometry">
            <mxPoint x="930" y="620" as="sourcePoint" />
            <mxPoint x="810" y="650" as="targetPoint" />
          </mxGeometry>
        </mxCell>
        <mxCell id="AQrncg6-6hbpREM-4HsJ-268" value="" style="endArrow=none;html=1;rounded=0;" edge="1" parent="WIyWlLk6GJQsqaUBKTNV-1">
          <mxGeometry width="50" height="50" relative="1" as="geometry">
            <mxPoint x="930" y="620" as="sourcePoint" />
            <mxPoint x="1010" y="670" as="targetPoint" />
          </mxGeometry>
        </mxCell>
        <mxCell id="AQrncg6-6hbpREM-4HsJ-269" value="" style="endArrow=none;html=1;rounded=0;" edge="1" parent="WIyWlLk6GJQsqaUBKTNV-1">
          <mxGeometry width="50" height="50" relative="1" as="geometry">
            <mxPoint x="930" y="480" as="sourcePoint" />
            <mxPoint x="930" y="620" as="targetPoint" />
          </mxGeometry>
        </mxCell>
        <mxCell id="AQrncg6-6hbpREM-4HsJ-270" value="" style="endArrow=none;html=1;rounded=0;" edge="1" parent="WIyWlLk6GJQsqaUBKTNV-1">
          <mxGeometry width="50" height="50" relative="1" as="geometry">
            <mxPoint x="930" y="480" as="sourcePoint" />
            <mxPoint x="810" y="590" as="targetPoint" />
          </mxGeometry>
        </mxCell>
        <mxCell id="AQrncg6-6hbpREM-4HsJ-271" value="" style="endArrow=none;html=1;rounded=0;" edge="1" parent="WIyWlLk6GJQsqaUBKTNV-1">
          <mxGeometry width="50" height="50" relative="1" as="geometry">
            <mxPoint x="850" y="610" as="sourcePoint" />
            <mxPoint x="1010" y="530" as="targetPoint" />
          </mxGeometry>
        </mxCell>
        <mxCell id="AQrncg6-6hbpREM-4HsJ-272" value="" style="endArrow=none;html=1;rounded=0;" edge="1" parent="WIyWlLk6GJQsqaUBKTNV-1">
          <mxGeometry width="50" height="50" relative="1" as="geometry">
            <mxPoint x="1010" y="530" as="sourcePoint" />
            <mxPoint x="930" y="480" as="targetPoint" />
          </mxGeometry>
        </mxCell>
        <mxCell id="AQrncg6-6hbpREM-4HsJ-276" value="FAR" style="edgeLabel;html=1;align=center;verticalAlign=bottom;resizable=0;points=[];horizontal=1;textDirection=ltr;" vertex="1" connectable="0" parent="AQrncg6-6hbpREM-4HsJ-272">
          <mxGeometry x="-0.2242" y="-1" relative="1" as="geometry">
            <mxPoint x="1" y="-10" as="offset" />
          </mxGeometry>
        </mxCell>
        <mxCell id="AQrncg6-6hbpREM-4HsJ-277" value="NEAR" style="edgeLabel;html=1;align=center;verticalAlign=bottom;resizable=0;points=[];horizontal=1;textDirection=ltr;" vertex="1" connectable="0" parent="WIyWlLk6GJQsqaUBKTNV-1">
          <mxGeometry x="849.9967277931496" y="599.9987072292116" as="geometry" />
        </mxCell>
        <mxCell id="AQrncg6-6hbpREM-4HsJ-278" value="CAM" style="edgeLabel;html=1;align=center;verticalAlign=bottom;resizable=0;points=[];horizontal=1;textDirection=ltr;" vertex="1" connectable="0" parent="WIyWlLk6GJQsqaUBKTNV-1">
          <mxGeometry x="729.9967277931496" y="659.9987072292116" as="geometry" />
        </mxCell>
        <mxCell id="AQrncg6-6hbpREM-4HsJ-279" value="" style="curved=1;endArrow=classic;html=1;rounded=0;startArrow=classic;startFill=1;" edge="1" parent="WIyWlLk6GJQsqaUBKTNV-1">
          <mxGeometry width="50" height="50" relative="1" as="geometry">
            <mxPoint x="790" y="670" as="sourcePoint" />
            <mxPoint x="790" y="640" as="targetPoint" />
            <Array as="points">
              <mxPoint x="800" y="660" />
              <mxPoint x="800" y="650" />
            </Array>
          </mxGeometry>
        </mxCell>
        <mxCell id="AQrncg6-6hbpREM-4HsJ-280" value="FOV" style="edgeLabel;html=1;align=center;verticalAlign=bottom;resizable=0;points=[];horizontal=1;textDirection=ltr;" vertex="1" connectable="0" parent="WIyWlLk6GJQsqaUBKTNV-1">
          <mxGeometry x="799.9967277931496" y="689.9987072292116" as="geometry" />
        </mxCell>
        <mxCell id="AQrncg6-6hbpREM-4HsJ-281" value="Perspective&lt;br&gt;projection" style="text;whiteSpace=wrap;html=1;align=center;verticalAlign=middle;" vertex="1" parent="WIyWlLk6GJQsqaUBKTNV-1">
          <mxGeometry x="680" y="440" width="80" height="40" as="geometry" />
        </mxCell>
        <mxCell id="AQrncg6-6hbpREM-4HsJ-283" value="VBO" style="edgeLabel;html=1;align=center;verticalAlign=bottom;resizable=0;points=[];labelPosition=center;verticalLabelPosition=top;" vertex="1" connectable="0" parent="WIyWlLk6GJQsqaUBKTNV-1">
          <mxGeometry x="180" y="880" as="geometry" />
        </mxCell>
        <mxCell id="AQrncg6-6hbpREM-4HsJ-294" value="" style="endArrow=none;html=1;rounded=0;" edge="1" parent="WIyWlLk6GJQsqaUBKTNV-1">
          <mxGeometry width="50" height="50" relative="1" as="geometry">
            <mxPoint x="1440" y="600" as="sourcePoint" />
            <mxPoint x="1600" y="520" as="targetPoint" />
          </mxGeometry>
        </mxCell>
        <mxCell id="AQrncg6-6hbpREM-4HsJ-303" value="" style="endArrow=none;html=1;rounded=0;" edge="1" parent="WIyWlLk6GJQsqaUBKTNV-1">
          <mxGeometry width="50" height="50" relative="1" as="geometry">
            <mxPoint x="1580" y="620" as="sourcePoint" />
            <mxPoint x="1460" y="500" as="targetPoint" />
          </mxGeometry>
        </mxCell>
        <mxCell id="AQrncg6-6hbpREM-4HsJ-304" value="" style="endArrow=none;html=1;rounded=0;" edge="1" parent="WIyWlLk6GJQsqaUBKTNV-1">
          <mxGeometry width="50" height="50" relative="1" as="geometry">
            <mxPoint x="1520" y="640" as="sourcePoint" />
            <mxPoint x="1520" y="480" as="targetPoint" />
          </mxGeometry>
        </mxCell>
      </root>
    </mxGraphModel>
  </diagram>
</mxfile>
